<svg width="24" height="24" viewBox="0 0 24 24" fill="none" xmlns="http://www.w3.org/2000/svg">
  <g opacity="0.320204">
    <path d="M6.29289 6.29289C6.65338 5.93241 7.22061 5.90468 7.6129 6.2097L7.70711 6.29289L17.7071 16.2929C18.0976 16.6834 18.0976 17.3166 17.7071 17.7071C17.3466 18.0676 16.7794 18.0953 16.3871 17.7903L16.2929 17.7071L6.29289 7.70711C5.90237 7.31658 5.90237 6.68342 6.29289 6.29289Z" fill="black" />
    <path d="M16.2929 6.29289C16.6834 5.90237 17.3166 5.90237 17.7071 6.29289C18.0676 6.65338 18.0953 7.22061 17.7903 7.6129L17.7071 7.70711L7.70711 17.7071C7.31658 18.0976 6.68342 18.0976 6.29289 17.7071C5.93241 17.3466 5.90468 16.7794 6.2097 16.3871L6.29289 16.2929L16.2929 6.29289Z" fill="black" />
  </g>
</svg>