<?xml version="1.0" encoding="utf-8"?>
<svg width="32" height="32" viewBox="0 0 32 32" fill="none" xmlns="http://www.w3.org/2000/svg">
    <path fill-rule="evenodd" clip-rule="evenodd" d="M14 11H24C25.6569 11 27 12.3431 27 14V24C27 25.6569 25.6569 27 24 27H14C12.3431 27 11 25.6569 11 24V14C11 12.3431 12.3431 11 14 11ZM24 13H14C13.4477 13 13 13.4477 13 14V24C13 24.5523 13.4477 25 14 25H24C24.5523 25 25 24.5523 25 24V14C25 13.4477 24.5523 13 24 13Z" fill="#0091FF"></path>
    <path d="M18 5C19.5977 5 20.9037 6.24892 20.9949 7.82373L21 8V9H19V8C19 7.48716 18.614 7.06449 18.1166 7.00673L18 7H8C7.48716 7 7.06449 7.38604 7.00673 7.88338L7 8V18C7 18.5128 7.38604 18.9355 7.88338 18.9933L8 19H9V21H8C6.40232 21 5.09634 19.7511 5.00509 18.1763L5 18V8C5 6.40232 6.24892 5.09634 7.82373 5.00509L8 5H18Z" fill="#0091FF"></path>
</svg>