<?xml version="1.0" encoding="utf-8"?>
<svg width="32" height="32" viewBox="0 0 32 32" fill="none" xmlns="http://www.w3.org/2000/svg">
    <path d="M18.9998 25.002C18.7892 26.6973 17.5263 28.0004 15.9999 28.0004C14.4735 28.0004 13.2107 26.6973 13 25.002H18.9998Z" fill="#0091FF"></path>
    <path fill-rule="evenodd" clip-rule="evenodd" d="M7.00168 12C7.00168 6.75195 10.5151 3.13113 15.7163 3.00349L16.0017 3C21.3593 3 25.0017 6.65653 25.0017 12V18.697L26.8337 21.4453C27.2557 22.0782 26.8437 22.9157 26.1135 22.9941L26.0017 23H6.00168C5.20299 23 4.72659 22.1099 5.16963 21.4453L7.00168 18.696V12ZM23.0017 12C23.0017 7.75937 20.253 5 16.0017 5C11.7504 5 9.00168 7.75937 9.00168 12V19C9.00168 19.1974 8.94324 19.3904 8.83373 19.5547L7.86968 21H24.1327L23.1696 19.5547C23.082 19.4233 23.0271 19.2735 23.0086 19.1177L23.0017 19V12Z" fill="#0091FF"></path>
</svg>