<?xml version="1.0" encoding="utf-8"?>
<svg width="32" height="32" viewBox="0 0 32 32" fill="none" xmlns="http://www.w3.org/2000/svg">
    <path fill-rule="evenodd" clip-rule="evenodd" d="M15.8062 9.2133L16.0008 9.17105L16.0018 5.00005C16.0018 4.10915 17.079 3.66298 17.7089 4.29294L26.7089 13.2929C27.0995 13.6835 27.0995 14.3166 26.7089 14.7072L17.7089 23.7072C17.079 24.3371 16.0018 23.891 16.0018 23.0001L16.0008 18.7941L15.8713 18.7717C12.2873 18.2132 9.38451 20.8304 7.07672 26.9761L6.94165 27.3417C6.57207 28.3583 5.07599 28.1459 5.00404 27.0666C4.33427 17.0201 7.96612 10.9518 15.8062 9.2133ZM24.5868 14.0001L18.0008 7.41405L18.0018 10.0001C18.0018 10.4889 17.6484 10.9061 17.1662 10.9864C11.0523 12.0054 7.69736 15.6805 7.04292 22.2321L7.03582 22.3051C9.63495 17.7763 12.9778 15.9287 17.0177 16.9682L17.2765 17.0385C17.7058 17.1612 18.0018 17.5536 18.0018 18.0001L18.0008 20.5851L24.5868 14.0001Z" fill="#0091FF"></path>
</svg>