<?xml version="1.0" encoding="utf-8"?><svg xmlns="http://www.w3.org/2000/svg" xmlns:xlink="http://www.w3.org/1999/xlink"><symbol viewBox="0 0 32 32" id="Both" xmlns="http://www.w3.org/2000/svg"><path fill-rule="evenodd" clip-rule="evenodd" d="M8 22.657C8 18.927 11.623 16 16 16s8 2.928 8 6.657c0 4.457-16 4.457-16 0zm14 0C22 20.137 19.355 18 16 18s-6 2.137-6 4.657c0 .44 1.671 1.028 4.037 1.252l.537.043.557.03.285.01L16 24l.584-.008.285-.01.557-.03.537-.043c2.366-.224 4.037-.812 4.037-1.252z"/><path d="M21.22 7.375a1 1 0 011.405-.156C23.573 7.978 24 9.26 24 11c0 1.74-.427 3.023-1.375 3.78a1 1 0 01-1.343-1.476l.093-.085c.386-.308.625-1.026.625-2.219 0-1.113-.209-1.813-.55-2.152l-.075-.067a1 1 0 01-.156-1.406z"/><path fill-rule="evenodd" clip-rule="evenodd" d="M12 11a4 4 0 118 0 4 4 0 01-8 0zm6 0a2 2 0 10-4 0 2 2 0 004 0z"/><path d="M9.375 7.22a1 1 0 011.343 1.476l-.093.085C10.239 9.089 10 9.807 10 11c0 1.113.209 1.813.55 2.152l.075.067a1 1 0 11-1.25 1.562C8.427 14.023 8 12.74 8 11c0-1.74.427-3.022 1.375-3.78z"/></symbol><symbol viewBox="0 0 32 32" id="OneD" xmlns="http://www.w3.org/2000/svg"><g opacity=".319"><path fill-rule="evenodd" clip-rule="evenodd" d="M8 22.657C8 18.927 11.623 16 16 16s8 2.928 8 6.657c0 4.457-16 4.457-16 0zm14 0C22 20.137 19.355 18 16 18s-6 2.137-6 4.657c0 .44 1.671 1.028 4.037 1.252l.537.043.557.03.285.01L16 24l.584-.008.285-.01.557-.03.537-.043c2.366-.224 4.037-.812 4.037-1.252zM12 11a4 4 0 118 0 4 4 0 01-8 0zm6 0a2 2 0 10-4 0 2 2 0 004 0z"/><path d="M9.375 7.22a1 1 0 011.343 1.476l-.093.085C10.239 9.089 10 9.807 10 11c0 1.113.209 1.813.55 2.152l.075.067a1 1 0 11-1.25 1.562C8.427 14.023 8 12.74 8 11c0-1.74.427-3.022 1.375-3.78z"/></g></symbol></svg>