<?xml version="1.0" encoding="utf-8"?>
<svg width="32" height="32" viewBox="0 0 32 32" fill="none" xmlns="http://www.w3.org/2000/svg">
    <path fill-rule="evenodd" clip-rule="evenodd" d="M8 22.6569C8 18.9278 11.623 16 16 16C20.377 16 24 18.9278 24 22.6569C24 27.1144 8 27.1144 8 22.6569ZM22 22.6569C22 20.1375 19.355 18 16 18C12.645 18 10 20.1375 10 22.6569C10 23.0973 11.6712 23.6852 14.037 23.9087L14.5737 23.9521L15.131 23.9823C15.2254 23.9861 15.3206 23.9894 15.4165 23.992L16 24L16.5835 23.992C16.6794 23.9894 16.7746 23.9861 16.869 23.9823L17.4263 23.9521L17.963 23.9087C20.3288 23.6852 22 23.0973 22 22.6569Z" fill="white"></path>
    <path class="profile__btn2-path2" d="M21.2192 7.37534C21.5642 6.94408 22.1935 6.87416 22.6247 7.21917C23.5727 7.97756 24 9.25949 24 11C24 12.7406 23.5727 14.0225 22.6247 14.7809C22.1935 15.1259 21.5642 15.056 21.2192 14.6247C20.9007 14.2266 20.9358 13.6598 21.2823 13.3036L21.3753 13.2192C21.7607 12.9109 22 12.1928 22 11C22 9.88677 21.7915 9.18703 21.4504 8.84804L21.3753 8.78091C20.9441 8.4359 20.8742 7.8066 21.2192 7.37534Z" fill="white"></path>
    <path fill-rule="evenodd" clip-rule="evenodd" d="M12 11C12 8.79086 13.7909 7 16 7C18.2091 7 20 8.79086 20 11C20 13.2091 18.2091 15 16 15C13.7909 15 12 13.2091 12 11ZM18 11C18 9.89543 17.1046 9 16 9C14.8954 9 14 9.89543 14 11C14 12.1046 14.8954 13 16 13C17.1046 13 18 12.1046 18 11Z" fill="white"></path>
    <path class="profile__btn2-path1" d="M9.3753 7.21917C9.80657 6.87416 10.4359 6.94408 10.7809 7.37534C11.0993 7.77343 11.0643 8.34025 10.7178 8.69646L10.6247 8.78091C10.2394 9.08918 10 9.80725 10 11C10 12.1133 10.2085 12.813 10.5496 13.152L10.6247 13.2192C11.056 13.5642 11.1259 14.1935 10.7809 14.6247C10.4359 15.056 9.80657 15.1259 9.3753 14.7809C8.42731 14.0225 8 12.7406 8 11C8 9.25949 8.42731 7.97756 9.3753 7.21917Z" fill="white"></path>
</svg>